<?xml version="1.0" encoding="us-ascii" standalone="no"?><svg xmlns="http://www.w3.org/2000/svg" xmlns:xlink="http://www.w3.org/1999/xlink" contentStyleType="text/css" height="707.2917px" preserveAspectRatio="none" style="width:9758px;height:707px;" version="1.1" viewBox="0 0 9758 707" width="9758.3333px" zoomAndPan="magnify"><defs><linearGradient id="gni92ba2vr4d30" x1="50%" x2="50%" y1="0%" y2="100%"><stop offset="0%" stop-color="#59B6EC"/><stop offset="100%" stop-color="#2FA4E7"/></linearGradient><linearGradient id="gni92ba2vr4d31" x1="50%" x2="50%" y1="0%" y2="100%"><stop offset="0%" stop-color="#FFFFFF"/><stop offset="100%" stop-color="#EDF0F2"/></linearGradient><linearGradient id="gni92ba2vr4d32" x1="50%" x2="50%" y1="0%" y2="100%"><stop offset="0%" stop-color="#35638F"/><stop offset="100%" stop-color="#033C73"/></linearGradient></defs><g><ellipse cx="5988.9323" cy="20.8333" fill="#033C73" rx="10.4167" ry="10.4167" style="stroke:#2683B9;stroke-width:1.0416666666666667;"/><rect fill="url(#gni92ba2vr4d30)" height="37.4674" rx="4.1667" ry="4.1667" style="stroke:#2FA4E7;stroke-width:1.0416666666666667;" width="176.0417" x="5900.9115" y="52.0833"/><text fill="#FFFFFF" font-family="Verdana" font-size="12.5" lengthAdjust="spacing" textLength="153.125" x="5912.3698" y="75.1444">Planning and Execution</text><polygon fill="url(#gni92ba2vr4d31)" points="5843.099,110.3841,6134.7656,110.3841,6147.2656,122.8841,6134.7656,135.3841,5843.099,135.3841,5830.599,122.8841,5843.099,110.3841" style="stroke:#BABDBF;stroke-width:1.0416666666666667;"/><text fill="#343A40" font-family="Verdana" font-size="12.5" lengthAdjust="spacing" textLength="281.25" x="5848.3073" y="127.2115">Define and Measure in DMAIC, Plan in PDSA</text><text fill="#343A40" font-family="Verdana" font-size="12.5" lengthAdjust="spacing" textLength="73.9583" x="5751.4323" y="114.7278">Being done</text><text fill="#343A40" font-family="Verdana" font-size="12.5" lengthAdjust="spacing" textLength="107.2917" x="6152.474" y="114.7278">How do I do that</text><path d="M4272.6563,145.8008 L4272.6563,166.6016 L4251.8229,170.7682 L4272.6563,174.9349 L4272.6563,195.7357 A0,0 0 0 0 4272.6563,195.7357 L5312.2396,195.7357 A0,0 0 0 0 5312.2396,195.7357 L5312.2396,156.2174 L5301.8229,145.8008 L4272.6563,145.8008 A0,0 0 0 0 4272.6563,145.8008 " fill="url(#gni92ba2vr4d32)" style="stroke:#033C73;stroke-width:1.0416666666666667;"/><path d="M5301.8229,145.8008 L5301.8229,156.2174 L5312.2396,156.2174 L5301.8229,145.8008 " fill="url(#gni92ba2vr4d32)" style="stroke:#033C73;stroke-width:1.0416666666666667;"/><text fill="#FFFFFF" font-family="Verdana" font-size="12.5" lengthAdjust="spacing" textLength="246.875" x="4284.1146" y="167.8202">Output: Developed product or feature</text><text fill="#FFFFFF" font-family="Verdana" font-size="12.5" lengthAdjust="spacing" textLength="1007.2917" x="4284.1146" y="182.371">Advice: Use the developed product or feature as a basis for testing and validation. Ensure it meets the defined project goals and customer requirements.</text><rect fill="url(#gni92ba2vr4d30)" height="37.4674" rx="4.1667" ry="4.1667" style="stroke:#2FA4E7;stroke-width:1.0416666666666667;" width="108.3333" x="4143.4896" y="152.0345"/><text fill="#FFFFFF" font-family="Verdana" font-size="12.5" lengthAdjust="spacing" textLength="85.4167" x="4154.9479" y="175.0956">Development</text><polygon fill="url(#gni92ba2vr4d31)" points="4098.6979,216.569,4296.6146,216.569,4309.1146,229.069,4296.6146,241.569,4098.6979,241.569,4086.1979,229.069,4098.6979,216.569" style="stroke:#BABDBF;stroke-width:1.0416666666666667;"/><text fill="#343A40" font-family="Verdana" font-size="12.5" lengthAdjust="spacing" textLength="187.5" x="4103.9063" y="233.3964">Analyze in DMAIC, Do in PDSA</text><text fill="#343A40" font-family="Verdana" font-size="12.5" lengthAdjust="spacing" textLength="73.9583" x="4007.0313" y="220.9127">Being done</text><text fill="#343A40" font-family="Verdana" font-size="12.5" lengthAdjust="spacing" textLength="107.2917" x="4314.3229" y="220.9127">How do I do that</text><path d="M2745.3125,251.9857 L2745.3125,272.7865 L2724.4792,276.9531 L2745.3125,281.1198 L2745.3125,301.9206 A0,0 0 0 0 2745.3125,301.9206 L3799.4792,301.9206 A0,0 0 0 0 3799.4792,301.9206 L3799.4792,262.4023 L3789.0625,251.9857 L2745.3125,251.9857 A0,0 0 0 0 2745.3125,251.9857 " fill="url(#gni92ba2vr4d32)" style="stroke:#033C73;stroke-width:1.0416666666666667;"/><path d="M3789.0625,251.9857 L3789.0625,262.4023 L3799.4792,262.4023 L3789.0625,251.9857 " fill="url(#gni92ba2vr4d32)" style="stroke:#033C73;stroke-width:1.0416666666666667;"/><text fill="#FFFFFF" font-family="Verdana" font-size="12.5" lengthAdjust="spacing" textLength="269.7917" x="2756.7708" y="274.0051">Output: Test results and identified issues</text><text fill="#FFFFFF" font-family="Verdana" font-size="12.5" lengthAdjust="spacing" textLength="1021.875" x="2756.7708" y="288.5559">Advice: Use the test results and identified issues to make improvements to the product. Prioritize issues based on their impact on the customer experience.</text><rect fill="url(#gni92ba2vr4d30)" height="37.4674" rx="4.1667" ry="4.1667" style="stroke:#2FA4E7;stroke-width:1.0416666666666667;" width="168.75" x="2555.7292" y="258.2194"/><text fill="#FFFFFF" font-family="Verdana" font-size="12.5" lengthAdjust="spacing" textLength="145.8333" x="2567.1875" y="281.2805">Testing and Validation</text><polygon fill="url(#gni92ba2vr4d31)" points="2530.2083,322.7539,2750,322.7539,2762.5,335.2539,2750,347.7539,2530.2083,347.7539,2517.7083,335.2539,2530.2083,322.7539" style="stroke:#BABDBF;stroke-width:1.0416666666666667;"/><text fill="#343A40" font-family="Verdana" font-size="12.5" lengthAdjust="spacing" textLength="209.375" x="2535.4167" y="339.5813">Improve in DMAIC, Study in PDSA</text><text fill="#343A40" font-family="Verdana" font-size="12.5" lengthAdjust="spacing" textLength="73.9583" x="2438.5417" y="327.0976">Being done</text><text fill="#343A40" font-family="Verdana" font-size="12.5" lengthAdjust="spacing" textLength="107.2917" x="2767.7083" y="327.0976">How do I do that</text><path d="M1422.3958,358.1706 L1422.3958,378.9714 L1401.5625,383.138 L1422.3958,387.3047 L1422.3958,408.1055 A0,0 0 0 0 1422.3958,408.1055 L2279.6875,408.1055 A0,0 0 0 0 2279.6875,408.1055 L2279.6875,368.5872 L2269.2708,358.1706 L1422.3958,358.1706 A0,0 0 0 0 1422.3958,358.1706 " fill="url(#gni92ba2vr4d32)" style="stroke:#033C73;stroke-width:1.0416666666666667;"/><path d="M2269.2708,358.1706 L2269.2708,368.5872 L2279.6875,368.5872 L2269.2708,358.1706 " fill="url(#gni92ba2vr4d32)" style="stroke:#033C73;stroke-width:1.0416666666666667;"/><text fill="#FFFFFF" font-family="Verdana" font-size="12.5" lengthAdjust="spacing" textLength="391.6667" x="1433.8542" y="380.19">Output: Deployed product and collected customer feedback</text><text fill="#FFFFFF" font-family="Verdana" font-size="12.5" lengthAdjust="spacing" textLength="825" x="1433.8542" y="394.7408">Advice: Use the feedback to identify areas for improvement. Incorporate these improvements into the next development cycle.</text><rect fill="url(#gni92ba2vr4d30)" height="37.4674" rx="4.1667" ry="4.1667" style="stroke:#2FA4E7;stroke-width:1.0416666666666667;" width="196.875" x="1204.6875" y="364.4043"/><text fill="#FFFFFF" font-family="Verdana" font-size="12.5" lengthAdjust="spacing" textLength="173.9583" x="1216.1458" y="387.4654">Deployment and Feedback</text><polygon fill="url(#gni92ba2vr4d31)" points="1203.125,428.9388,1403.125,428.9388,1415.625,441.4388,1403.125,453.9388,1203.125,453.9388,1190.625,441.4388,1203.125,428.9388" style="stroke:#BABDBF;stroke-width:1.0416666666666667;"/><text fill="#343A40" font-family="Verdana" font-size="12.5" lengthAdjust="spacing" textLength="189.5833" x="1208.3333" y="445.7662">Control in DMAIC, Act in PDSA</text><text fill="#343A40" font-family="Verdana" font-size="12.5" lengthAdjust="spacing" textLength="73.9583" x="1111.4583" y="433.2825">Being done</text><text fill="#343A40" font-family="Verdana" font-size="12.5" lengthAdjust="spacing" textLength="107.2917" x="1420.8333" y="433.2825">How do I do that</text><path d="M422.9167,464.3555 L422.9167,485.1563 L402.0833,489.3229 L422.9167,493.4896 L422.9167,514.2904 A0,0 0 0 0 422.9167,514.2904 L1358.3333,514.2904 A0,0 0 0 0 1358.3333,514.2904 L1358.3333,474.7721 L1347.9167,464.3555 L422.9167,464.3555 A0,0 0 0 0 422.9167,464.3555 " fill="url(#gni92ba2vr4d32)" style="stroke:#033C73;stroke-width:1.0416666666666667;"/><path d="M1347.9167,464.3555 L1347.9167,474.7721 L1358.3333,474.7721 L1347.9167,464.3555 " fill="url(#gni92ba2vr4d32)" style="stroke:#033C73;stroke-width:1.0416666666666667;"/><text fill="#FFFFFF" font-family="Verdana" font-size="12.5" lengthAdjust="spacing" textLength="311.4583" x="434.375" y="486.3749">Output: Analysis results and improvement plans</text><text fill="#FFFFFF" font-family="Verdana" font-size="12.5" lengthAdjust="spacing" textLength="903.125" x="434.375" y="500.9257">Advice: Implement the improvement plans in the next development cycle. Use the analysis results to inform future planning and execution.</text><rect fill="url(#gni92ba2vr4d30)" height="37.4674" rx="4.1667" ry="4.1667" style="stroke:#2FA4E7;stroke-width:1.0416666666666667;" width="301.0417" x="101.0417" y="470.5892"/><text fill="#FFFFFF" font-family="Verdana" font-size="12.5" lengthAdjust="spacing" textLength="278.125" x="112.5" y="493.6503">Post-Production Analysis and Improvement</text><polygon fill="url(#gni92ba2vr4d31)" points="196.875,535.1237,306.25,535.1237,318.75,547.6237,306.25,560.1237,196.875,560.1237,184.375,547.6237,196.875,535.1237" style="stroke:#BABDBF;stroke-width:1.0416666666666667;"/><text fill="#343A40" font-family="Verdana" font-size="12.5" lengthAdjust="spacing" textLength="98.9583" x="202.0833" y="551.9511">Feedback Loop</text><text fill="#343A40" font-family="Verdana" font-size="12.5" lengthAdjust="spacing" textLength="73.9583" x="105.2083" y="539.4674">Being done</text><text fill="#343A40" font-family="Verdana" font-size="12.5" lengthAdjust="spacing" textLength="107.2917" x="323.9583" y="539.4674">How do I do that</text><rect fill="url(#gni92ba2vr4d30)" height="37.4674" rx="4.1667" ry="4.1667" style="stroke:#2FA4E7;stroke-width:1.0416666666666667;" width="176.0417" x="11.4583" y="570.5404"/><text fill="#FFFFFF" font-family="Verdana" font-size="12.5" lengthAdjust="spacing" textLength="153.125" x="22.9167" y="593.6015">Planning and Execution</text><path d="M619.7917,570.5404 L619.7917,591.3411 L598.9583,595.5078 L619.7917,599.6745 L619.7917,620.4753 A0,0 0 0 0 619.7917,620.4753 L2056.25,620.4753 A0,0 0 0 0 2056.25,620.4753 L2056.25,580.957 L2045.8333,570.5404 L619.7917,570.5404 A0,0 0 0 0 619.7917,570.5404 " fill="url(#gni92ba2vr4d32)" style="stroke:#033C73;stroke-width:1.0416666666666667;"/><path d="M2045.8333,570.5404 L2045.8333,580.957 L2056.25,580.957 L2045.8333,570.5404 " fill="url(#gni92ba2vr4d32)" style="stroke:#033C73;stroke-width:1.0416666666666667;"/><text fill="#FFFFFF" font-family="Verdana" font-size="12.5" lengthAdjust="spacing" textLength="1404.1667" x="631.25" y="592.5598">Set up channels for collecting customer feedback, such as surveys, user interviews, or feedback forms on your website. Analyze this feedback to gain insights into what customers like and dislike about your product.</text><text fill="#FFFFFF" font-family="Verdana" font-size="12.5" lengthAdjust="spacing" textLength="838.5417" x="631.25" y="607.1106">Advice: Use the feedback to inform future planning and execution. Incorporate customer insights into the development process.</text><rect fill="url(#gni92ba2vr4d30)" height="37.4674" rx="4.1667" ry="4.1667" style="stroke:#2FA4E7;stroke-width:1.0416666666666667;" width="390.625" x="208.3333" y="576.7741"/><text fill="#FFFFFF" font-family="Verdana" font-size="12.5" lengthAdjust="spacing" textLength="367.7083" x="219.7917" y="599.8352">Establish a system for collecting and analyzing feedback</text><ellipse cx="403.6458" cy="652.7669" fill="none" rx="11.4583" ry="11.4583" style="stroke:#2683B9;stroke-width:1.0416666666666667;"/><ellipse cx="403.6458" cy="652.7669" fill="#2683B9" rx="6.25" ry="6.25" style="stroke:#13415C;stroke-width:1.0416666666666667;"/><path d="M2642.7083,464.3555 L2642.7083,485.1563 L2621.875,489.3229 L2642.7083,493.4896 L2642.7083,514.2904 A0,0 0 0 0 2642.7083,514.2904 L3788.5417,514.2904 A0,0 0 0 0 3788.5417,514.2904 L3788.5417,474.7721 L3778.125,464.3555 L2642.7083,464.3555 A0,0 0 0 0 2642.7083,464.3555 " fill="url(#gni92ba2vr4d32)" style="stroke:#033C73;stroke-width:1.0416666666666667;"/><path d="M3778.125,464.3555 L3778.125,474.7721 L3788.5417,474.7721 L3778.125,464.3555 " fill="url(#gni92ba2vr4d32)" style="stroke:#033C73;stroke-width:1.0416666666666667;"/><text fill="#FFFFFF" font-family="Verdana" font-size="12.5" lengthAdjust="spacing" textLength="904.1667" x="2654.1667" y="486.3749">This could involve setting up quality assurance processes, such as regular code reviews, automated testing, and performance monitoring.</text><text fill="#FFFFFF" font-family="Verdana" font-size="12.5" lengthAdjust="spacing" textLength="1113.5417" x="2654.1667" y="500.9257">Advice: Use the control measures to maintain product quality. Regularly review and update these measures based on changes in customer requirements or project goals.</text><rect fill="url(#gni92ba2vr4d30)" height="37.4674" rx="4.1667" ry="4.1667" style="stroke:#2FA4E7;stroke-width:1.0416666666666667;" width="534.375" x="2087.5" y="470.5892"/><text fill="#FFFFFF" font-family="Verdana" font-size="12.5" lengthAdjust="spacing" textLength="511.4583" x="2098.9583" y="493.6503">Implement control measures to ensure product meets customer requirements</text><ellipse cx="2354.6875" cy="546.582" fill="none" rx="11.4583" ry="11.4583" style="stroke:#2683B9;stroke-width:1.0416666666666667;"/><ellipse cx="2354.6875" cy="546.582" fill="#2683B9" rx="6.25" ry="6.25" style="stroke:#13415C;stroke-width:1.0416666666666667;"/><path d="M4145.3125,358.1706 L4145.3125,378.9714 L4124.4792,383.138 L4145.3125,387.3047 L4145.3125,408.1055 A0,0 0 0 0 4145.3125,408.1055 L5550.5208,408.1055 A0,0 0 0 0 5550.5208,408.1055 L5550.5208,368.5872 L5540.1042,358.1706 L4145.3125,358.1706 A0,0 0 0 0 4145.3125,358.1706 " fill="url(#gni92ba2vr4d32)" style="stroke:#033C73;stroke-width:1.0416666666666667;"/><path d="M5540.1042,358.1706 L5540.1042,368.5872 L5550.5208,368.5872 L5540.1042,358.1706 " fill="url(#gni92ba2vr4d32)" style="stroke:#033C73;stroke-width:1.0416666666666667;"/><text fill="#FFFFFF" font-family="Verdana" font-size="12.5" lengthAdjust="spacing" textLength="1372.9167" x="4156.7708" y="380.19">After testing your product, gather and analyze the results to identify areas for improvement. This could involve looking at which features are not working as expected, or where users are experiencing difficulties.</text><text fill="#FFFFFF" font-family="Verdana" font-size="12.5" lengthAdjust="spacing" textLength="839.5833" x="4156.7708" y="394.7408">Advice: Use the analysis to inform future development. Incorporate the identified improvements into the next development cycle.</text><rect fill="url(#gni92ba2vr4d30)" height="37.4674" rx="4.1667" ry="4.1667" style="stroke:#2FA4E7;stroke-width:1.0416666666666667;" width="314.5833" x="3809.8958" y="364.4043"/><text fill="#FFFFFF" font-family="Verdana" font-size="12.5" lengthAdjust="spacing" textLength="291.6667" x="3821.3542" y="387.4654">Analyze test results and make improvements</text><ellipse cx="3967.1875" cy="440.3971" fill="none" rx="11.4583" ry="11.4583" style="stroke:#2683B9;stroke-width:1.0416666666666667;"/><ellipse cx="3967.1875" cy="440.3971" fill="#2683B9" rx="6.25" ry="6.25" style="stroke:#13415C;stroke-width:1.0416666666666667;"/><path d="M5948.4375,251.9857 L5948.4375,272.7865 L5927.6042,276.9531 L5948.4375,281.1198 L5948.4375,301.9206 A0,0 0 0 0 5948.4375,301.9206 L7599.4792,301.9206 A0,0 0 0 0 7599.4792,301.9206 L7599.4792,262.4023 L7589.0625,251.9857 L5948.4375,251.9857 A0,0 0 0 0 5948.4375,251.9857 " fill="url(#gni92ba2vr4d32)" style="stroke:#033C73;stroke-width:1.0416666666666667;"/><path d="M7589.0625,251.9857 L7589.0625,262.4023 L7599.4792,262.4023 L7589.0625,251.9857 " fill="url(#gni92ba2vr4d32)" style="stroke:#033C73;stroke-width:1.0416666666666667;"/><text fill="#FFFFFF" font-family="Verdana" font-size="12.5" lengthAdjust="spacing" textLength="1618.75" x="5959.8958" y="274.0051">Use techniques such as the 5 Whys or Fishbone Diagram to identify the root causes of any issues in your current process. This involves asking why a problem occurred, and then continuing to ask why that happened, until you reach the root cause.</text><text fill="#FFFFFF" font-family="Verdana" font-size="12.5" lengthAdjust="spacing" textLength="923.9583" x="5959.8958" y="288.5559">Advice: Use the root cause analysis to make improvements to the process. Incorporate these improvements into the next development cycle.</text><rect fill="url(#gni92ba2vr4d30)" height="37.4674" rx="4.1667" ry="4.1667" style="stroke:#2FA4E7;stroke-width:1.0416666666666667;" width="366.6667" x="5560.9375" y="258.2194"/><text fill="#FFFFFF" font-family="Verdana" font-size="12.5" lengthAdjust="spacing" textLength="343.75" x="5572.3958" y="281.2805">Analyze the process to identify root causes of issues</text><ellipse cx="5744.2708" cy="334.2122" fill="none" rx="11.4583" ry="11.4583" style="stroke:#2683B9;stroke-width:1.0416666666666667;"/><ellipse cx="5744.2708" cy="334.2122" fill="#2683B9" rx="6.25" ry="6.25" style="stroke:#13415C;stroke-width:1.0416666666666667;"/><path d="M7971.3542,145.8008 L7971.3542,166.6016 L7950.5208,170.7682 L7971.3542,174.9349 L7971.3542,195.7357 A0,0 0 0 0 7971.3542,195.7357 L9746.3542,195.7357 A0,0 0 0 0 9746.3542,195.7357 L9746.3542,156.2174 L9735.9375,145.8008 L7971.3542,145.8008 A0,0 0 0 0 7971.3542,145.8008 " fill="url(#gni92ba2vr4d32)" style="stroke:#033C73;stroke-width:1.0416666666666667;"/><path d="M9735.9375,145.8008 L9735.9375,156.2174 L9746.3542,156.2174 L9735.9375,145.8008 " fill="url(#gni92ba2vr4d32)" style="stroke:#033C73;stroke-width:1.0416666666666667;"/><text fill="#FFFFFF" font-family="Verdana" font-size="12.5" lengthAdjust="spacing" textLength="1742.7083" x="7982.8125" y="167.8202">Start by identifying the needs and expectations of your customers. This can be done through customer interviews, surveys, or market research. Once you have a clear understanding of what your customers want, you can set project goals that align with these needs.</text><text fill="#FFFFFF" font-family="Verdana" font-size="12.5" lengthAdjust="spacing" textLength="1264.5833" x="7982.8125" y="182.371">Advice: Use the defined project goals and customer requirements to guide the development process. Regularly review and update these based on changes in customer needs or market trends.</text><rect fill="url(#gni92ba2vr4d30)" height="37.4674" rx="4.1667" ry="4.1667" style="stroke:#2FA4E7;stroke-width:1.0416666666666667;" width="340.625" x="7609.8958" y="152.0345"/><text fill="#FFFFFF" font-family="Verdana" font-size="12.5" lengthAdjust="spacing" textLength="317.7083" x="7621.3542" y="175.0956">Define project goals and customer requirements</text><ellipse cx="7780.2083" cy="228.0273" fill="none" rx="11.4583" ry="11.4583" style="stroke:#2683B9;stroke-width:1.0416666666666667;"/><ellipse cx="7780.2083" cy="228.0273" fill="#2683B9" rx="6.25" ry="6.25" style="stroke:#13415C;stroke-width:1.0416666666666667;"/><line style="stroke:#2FA4E7;stroke-width:3.125;" x1="5988.9323" x2="5988.9323" y1="31.25" y2="52.0833"/><polygon fill="#2FA4E7" points="5984.7656,41.6667,5988.9323,52.0833,5993.099,41.6667,5988.9323,45.8333" style="stroke:#2FA4E7;stroke-width:1.0416666666666667;"/><line style="stroke:#2FA4E7;stroke-width:3.125;" x1="403.6458" x2="403.6458" y1="614.2415" y2="641.3086"/><polygon fill="#2FA4E7" points="399.4792,630.8919,403.6458,641.3086,407.8125,630.8919,403.6458,635.0586" style="stroke:#2FA4E7;stroke-width:1.0416666666666667;"/><line style="stroke:#2FA4E7;stroke-width:3.125;" x1="184.375" x2="99.4792" y1="547.6237" y2="547.6237"/><line style="stroke:#2FA4E7;stroke-width:3.125;" x1="99.4792" x2="99.4792" y1="547.6237" y2="570.5404"/><polygon fill="#2FA4E7" points="95.3125,560.1237,99.4792,570.5404,103.6458,560.1237,99.4792,564.2904" style="stroke:#2FA4E7;stroke-width:1.0416666666666667;"/><line style="stroke:#2FA4E7;stroke-width:3.125;" x1="318.75" x2="403.6458" y1="547.6237" y2="547.6237"/><line style="stroke:#2FA4E7;stroke-width:3.125;" x1="403.6458" x2="403.6458" y1="547.6237" y2="576.7741"/><polygon fill="#2FA4E7" points="399.4792,566.3574,403.6458,576.7741,407.8125,566.3574,403.6458,570.5241" style="stroke:#2FA4E7;stroke-width:1.0416666666666667;"/><line style="stroke:#2FA4E7;stroke-width:3.125;" x1="99.4792" x2="99.4792" y1="608.0078" y2="695.4753"/><line style="stroke:#2FA4E7;stroke-width:3.125;" x1="99.4792" x2="5988.9323" y1="695.4753" y2="695.4753"/><line style="stroke:#2FA4E7;stroke-width:3.125;" x1="251.5625" x2="251.5625" y1="508.0566" y2="535.1237"/><polygon fill="#2FA4E7" points="247.3958,524.707,251.5625,535.1237,255.7292,524.707,251.5625,528.8737" style="stroke:#2FA4E7;stroke-width:1.0416666666666667;"/><line style="stroke:#2FA4E7;stroke-width:3.125;" x1="2354.6875" x2="2354.6875" y1="508.0566" y2="535.1237"/><polygon fill="#2FA4E7" points="2350.5208,524.707,2354.6875,535.1237,2358.8542,524.707,2354.6875,528.8737" style="stroke:#2FA4E7;stroke-width:1.0416666666666667;"/><line style="stroke:#2FA4E7;stroke-width:3.125;" x1="1190.625" x2="251.5625" y1="441.4388" y2="441.4388"/><line style="stroke:#2FA4E7;stroke-width:3.125;" x1="251.5625" x2="251.5625" y1="441.4388" y2="470.5892"/><polygon fill="#2FA4E7" points="247.3958,460.1725,251.5625,470.5892,255.7292,460.1725,251.5625,464.3392" style="stroke:#2FA4E7;stroke-width:1.0416666666666667;"/><line style="stroke:#2FA4E7;stroke-width:3.125;" x1="1415.625" x2="2354.6875" y1="441.4388" y2="441.4388"/><line style="stroke:#2FA4E7;stroke-width:3.125;" x1="2354.6875" x2="2354.6875" y1="441.4388" y2="470.5892"/><polygon fill="#2FA4E7" points="2350.5208,460.1725,2354.6875,470.5892,2358.8542,460.1725,2354.6875,464.3392" style="stroke:#2FA4E7;stroke-width:1.0416666666666667;"/><line style="stroke:#2FA4E7;stroke-width:3.125;" x1="1303.125" x2="1303.125" y1="401.8717" y2="428.9388"/><polygon fill="#2FA4E7" points="1298.9583,418.5221,1303.125,428.9388,1307.2917,418.5221,1303.125,422.6888" style="stroke:#2FA4E7;stroke-width:1.0416666666666667;"/><line style="stroke:#2FA4E7;stroke-width:3.125;" x1="3967.1875" x2="3967.1875" y1="401.8717" y2="428.9388"/><polygon fill="#2FA4E7" points="3963.0208,418.5221,3967.1875,428.9388,3971.3542,418.5221,3967.1875,422.6888" style="stroke:#2FA4E7;stroke-width:1.0416666666666667;"/><line style="stroke:#2FA4E7;stroke-width:3.125;" x1="2517.7083" x2="1303.125" y1="335.2539" y2="335.2539"/><line style="stroke:#2FA4E7;stroke-width:3.125;" x1="1303.125" x2="1303.125" y1="335.2539" y2="364.4043"/><polygon fill="#2FA4E7" points="1298.9583,353.9876,1303.125,364.4043,1307.2917,353.9876,1303.125,358.1543" style="stroke:#2FA4E7;stroke-width:1.0416666666666667;"/><line style="stroke:#2FA4E7;stroke-width:3.125;" x1="2762.5" x2="3967.1875" y1="335.2539" y2="335.2539"/><line style="stroke:#2FA4E7;stroke-width:3.125;" x1="3967.1875" x2="3967.1875" y1="335.2539" y2="364.4043"/><polygon fill="#2FA4E7" points="3963.0208,353.9876,3967.1875,364.4043,3971.3542,353.9876,3967.1875,358.1543" style="stroke:#2FA4E7;stroke-width:1.0416666666666667;"/><line style="stroke:#2FA4E7;stroke-width:3.125;" x1="2640.1042" x2="2640.1042" y1="295.6868" y2="322.7539"/><polygon fill="#2FA4E7" points="2635.9375,312.3372,2640.1042,322.7539,2644.2708,312.3372,2640.1042,316.5039" style="stroke:#2FA4E7;stroke-width:1.0416666666666667;"/><line style="stroke:#2FA4E7;stroke-width:3.125;" x1="5744.2708" x2="5744.2708" y1="295.6868" y2="322.7539"/><polygon fill="#2FA4E7" points="5740.1042,312.3372,5744.2708,322.7539,5748.4375,312.3372,5744.2708,316.5039" style="stroke:#2FA4E7;stroke-width:1.0416666666666667;"/><line style="stroke:#2FA4E7;stroke-width:3.125;" x1="4086.1979" x2="2640.1042" y1="229.069" y2="229.069"/><line style="stroke:#2FA4E7;stroke-width:3.125;" x1="2640.1042" x2="2640.1042" y1="229.069" y2="258.2194"/><polygon fill="#2FA4E7" points="2635.9375,247.8027,2640.1042,258.2194,2644.2708,247.8027,2640.1042,251.9694" style="stroke:#2FA4E7;stroke-width:1.0416666666666667;"/><line style="stroke:#2FA4E7;stroke-width:3.125;" x1="4309.1146" x2="5744.2708" y1="229.069" y2="229.069"/><line style="stroke:#2FA4E7;stroke-width:3.125;" x1="5744.2708" x2="5744.2708" y1="229.069" y2="258.2194"/><polygon fill="#2FA4E7" points="5740.1042,247.8027,5744.2708,258.2194,5748.4375,247.8027,5744.2708,251.9694" style="stroke:#2FA4E7;stroke-width:1.0416666666666667;"/><line style="stroke:#2FA4E7;stroke-width:3.125;" x1="4197.6563" x2="4197.6563" y1="189.502" y2="216.569"/><polygon fill="#2FA4E7" points="4193.4896,206.1523,4197.6563,216.569,4201.8229,206.1523,4197.6563,210.319" style="stroke:#2FA4E7;stroke-width:1.0416666666666667;"/><line style="stroke:#2FA4E7;stroke-width:3.125;" x1="7780.2083" x2="7780.2083" y1="189.502" y2="216.569"/><polygon fill="#2FA4E7" points="7776.0417,206.1523,7780.2083,216.569,7784.375,206.1523,7780.2083,210.319" style="stroke:#2FA4E7;stroke-width:1.0416666666666667;"/><line style="stroke:#2FA4E7;stroke-width:3.125;" x1="5830.599" x2="4197.6563" y1="122.8841" y2="122.8841"/><line style="stroke:#2FA4E7;stroke-width:3.125;" x1="4197.6563" x2="4197.6563" y1="122.8841" y2="152.0345"/><polygon fill="#2FA4E7" points="4193.4896,141.6178,4197.6563,152.0345,4201.8229,141.6178,4197.6563,145.7845" style="stroke:#2FA4E7;stroke-width:1.0416666666666667;"/><line style="stroke:#2FA4E7;stroke-width:3.125;" x1="6147.2656" x2="7780.2083" y1="122.8841" y2="122.8841"/><line style="stroke:#2FA4E7;stroke-width:3.125;" x1="7780.2083" x2="7780.2083" y1="122.8841" y2="152.0345"/><polygon fill="#2FA4E7" points="7776.0417,141.6178,7780.2083,152.0345,7784.375,141.6178,7780.2083,145.7845" style="stroke:#2FA4E7;stroke-width:1.0416666666666667;"/><line style="stroke:#2FA4E7;stroke-width:3.125;" x1="5988.9323" x2="5988.9323" y1="89.5508" y2="110.3841"/><polygon fill="#2FA4E7" points="5984.7656,99.9674,5988.9323,110.3841,5993.099,99.9674,5988.9323,104.1341" style="stroke:#2FA4E7;stroke-width:1.0416666666666667;"/><!--SRC=[hLTBSzms3BxxLw0tPyRTMo_hanixKyyq4q-TjcUk1ArOIwJCnsuslxu0I3ttONVIYyTQ4Y3muSC7ygTGOujGe8iDAdFbWtBXQltKA6EqsO8o9Jnymo86RStjbQxW-XuhRL1MFgFoqI5e0_UVxnu_tW0RykVJ_VFT1o3d1gv_HVPKMeCVhW3MzxZ3ndOjcd1BtyO61AUtTQ2FBp5qCQmXxy4IEcVBM0Im3YfKWKwZRNVbJXUuXZyzyXbGNjWEoeE2ZVBQGqK_1_IXpsod6bqgJcq53oQb4g1533xxvLJ5wpz8NhTMDLuiY-Y3RT61mzUe7N8sVaMX8IroIlGlWtLdL7FuFaNetbx6Xn3wEWdnho74MrcSmJK2nYOKYuzDI07gaYBIbQRejVSHlMnV0XVUD8DWeLKlb45BAEnIelmZcsUqL_3aj7KwQCuqcH7WvCCQtgSTMoikYtoFwE6t3fr6K-1AufkWb_1xJATEy7iEiJoy1Q7Gh6liWSELn3uXbXjLlDpczGMEK-gntOHAKcxRD4G0d1I-oWwp-HBPVfcXog0UG3bg667X1CqLF9h2kiuw5SJMBy3M9iDjy5lekIw95OUYoSWji4leVRGcEDjCqBkZXDx4Zj1xiZxy_9GG8Ew1y9XRYD5u7AEx7KoE01qX7OndJ1kTG4UguGUp7aewfadhdFpHVixZ0Yf39TJoTAw8eIAqK4LHY6wgTjYhtMe8Q85imhOd5FnkRNS9IqRpZ9mE1pGKw_LlTa-cyCX_Ggt2pCK3AVEcqRucCVC77x0L7cLYzhubr-_yLItuVgP40CyO87PGr1GYnR7qUiJt6_2ng5bLIIztUF0t43sj4qlHxJJkwGSxRcT_hUV6FzZeO8yRhmDLfnV6KBCkJvfbgpHF4CzXPkxl2OmX40-DVadZfzG-_R-nCIJ_lI9D4hpOcU_XmQm_1ppc8KwcK6AeimLwFutZY4K0vAgRianNL-yZn7hiZIBtU9jciT0Rqoph5ImDj9CZwsB_VkNQ53OsrArcPnlIOOz1Q46CUOqqcWA96Wc-KoJXVTBeHuuutCP6CQDAyewP7ofI98hbD4_Z6u6SPW6NGtorrkX0CyLiLrVdAdagzPRe4vX2VV8vp1NyaK9f3ZaEEJ9svQYwWvzXU75NR56avYHypFJPvU22Q4oAFPRwSg7NGvSiv_JHI3uxr-ugwilXrZDjaXlgDKhSJPGZuJeLoZT6rmcADDQ-I1C5QbnDDCWNCSy-E3xOMvTsUBa0y5mLpTXJC2XgalOEjmCHLLrLkg2uD0ueBmanIFrHQqzwysZUpYuzFpvuXphtLRvKux72zT0_CzoT9S0AHQ0GsQfykpfv5HGGiAYDVkKBMD-1xFWN-Bi-25a_qGJPq7Y2UwssJhMpiwJsy_EKEVGtEfqbl8ZEJIKkSI1NdmhdfRRxcZZ3UpQaKs0BiIfJdykivERL9l9UYe6in8IHWLfr7HhU7MbFmySI9nNbCuzmTV9EEwxF-73f4flo-3-kOJCkP2Oa7fndmJg_gDxvoZXwD3tpcmqsXw6GWga4YgNFmupRJ9uHKjPSo3nH-pQcfzi6vVP2vix6RJqTT-Du7mO_4QfLxWL5cr2vebx15rPlhbYjI0mK43Ia_z6KT52WM3WuYa1c-ZmCs2j3eiIs70gDcWKaGWvIyws1lGvrBf9akJhvAlnFhpUvV4J2yEmmVyS8kJWvKZr6q0BrKRbyDGffX3B_0W00]--></g></svg>