<?xml version="1.0" encoding="us-ascii" standalone="no"?><svg xmlns="http://www.w3.org/2000/svg" xmlns:xlink="http://www.w3.org/1999/xlink" contentStyleType="text/css" height="315.625px" preserveAspectRatio="none" style="width:3482px;height:315px;" version="1.1" viewBox="0 0 3482 315" width="3482.2917px" zoomAndPan="magnify"><defs><linearGradient id="gnxfwa1ethpnk0" x1="50%" x2="50%" y1="0%" y2="100%"><stop offset="0%" stop-color="#59B6EC"/><stop offset="100%" stop-color="#2FA4E7"/></linearGradient><linearGradient id="gnxfwa1ethpnk1" x1="50%" x2="50%" y1="0%" y2="100%"><stop offset="0%" stop-color="#35638F"/><stop offset="100%" stop-color="#033C73"/></linearGradient><linearGradient id="gnxfwa1ethpnk2" x1="50%" x2="50%" y1="0%" y2="100%"><stop offset="0%" stop-color="#FFFFFF"/><stop offset="100%" stop-color="#EDF0F2"/></linearGradient></defs><g><ellipse cx="181.7708" cy="20.8333" fill="#033C73" rx="10.4167" ry="10.4167" style="stroke:#2683B9;stroke-width:1.0416666666666667;"/><rect fill="url(#gnxfwa1ethpnk0)" height="37.4674" rx="4.1667" ry="4.1667" style="stroke:#2FA4E7;stroke-width:1.0416666666666667;" width="176.0417" x="93.75" y="52.0833"/><text fill="#FFFFFF" font-family="Verdana" font-size="12.5" lengthAdjust="spacing" textLength="153.125" x="105.2083" y="75.1444">Planning and Execution</text><path d="M2172.9167,165.5924 L2172.9167,215.5273 L3469.7917,215.5273 L3469.7917,176.0091 L3459.375,165.5924 L2172.9167,165.5924 " fill="url(#gnxfwa1ethpnk1)" style="stroke:#033C73;stroke-width:1.0416666666666667;"/><path d="M3459.375,165.5924 L3459.375,176.0091 L3469.7917,176.0091 L3459.375,165.5924 " fill="url(#gnxfwa1ethpnk1)" style="stroke:#033C73;stroke-width:1.0416666666666667;"/><text fill="#FFFFFF" font-family="Verdana" font-size="12.5" lengthAdjust="spacing" textLength="379.1667" x="2184.375" y="187.6119">Output: Defined project goals and customer requirements</text><text fill="#FFFFFF" font-family="Verdana" font-size="12.5" lengthAdjust="spacing" textLength="1264.5833" x="2184.375" y="202.1627">Advice: Use the defined project goals and customer requirements to guide the development process. Regularly review and update these based on changes in customer needs or market trends.</text><path d="M372.9167,167.6595 L372.9167,181.1849 L352.0833,185.3516 L372.9167,189.5182 L372.9167,203.0436 A0,0 0 0 0 372.9167,203.0436 L2147.9167,203.0436 A0,0 0 0 0 2147.9167,203.0436 L2147.9167,178.0762 L2137.5,167.6595 L372.9167,167.6595 A0,0 0 0 0 372.9167,167.6595 " fill="url(#gnxfwa1ethpnk1)" style="stroke:#033C73;stroke-width:1.0416666666666667;"/><path d="M2137.5,167.6595 L2137.5,178.0762 L2147.9167,178.0762 L2137.5,167.6595 " fill="url(#gnxfwa1ethpnk1)" style="stroke:#033C73;stroke-width:1.0416666666666667;"/><text fill="#FFFFFF" font-family="Verdana" font-size="12.5" lengthAdjust="spacing" textLength="1742.7083" x="384.375" y="189.679">Start by identifying the needs and expectations of your customers. This can be done through customer interviews, surveys, or market research. Once you have a clear understanding of what your customers want, you can set project goals that align with these needs.</text><rect fill="url(#gnxfwa1ethpnk0)" height="37.4674" rx="4.1667" ry="4.1667" style="stroke:#2FA4E7;stroke-width:1.0416666666666667;" width="340.625" x="11.4583" y="166.6178"/><text fill="#FFFFFF" font-family="Verdana" font-size="12.5" lengthAdjust="spacing" textLength="317.7083" x="22.9167" y="189.679">Define project goals and customer requirements</text><polygon fill="url(#gnxfwa1ethpnk2)" points="35.9375,110.3841,327.6042,110.3841,340.1042,122.8841,327.6042,135.3841,35.9375,135.3841,23.4375,122.8841,35.9375,110.3841" style="stroke:#BABDBF;stroke-width:1.0416666666666667;"/><text fill="#343A40" font-family="Verdana" font-size="12.5" lengthAdjust="spacing" textLength="107.2917" x="191.1458" y="152.1952">How do I do that</text><text fill="#343A40" font-family="Verdana" font-size="12.5" lengthAdjust="spacing" textLength="281.25" x="41.1458" y="127.2115">Define and Measure in DMAIC, Plan in PDSA</text><text fill="#343A40" font-family="Verdana" font-size="12.5" lengthAdjust="spacing" textLength="73.9583" x="345.3125" y="114.7278">Being done</text><polygon fill="url(#gnxfwa1ethpnk2)" points="181.7708,236.3607,194.2708,248.8607,181.7708,261.3607,169.2708,248.8607,181.7708,236.3607" style="stroke:#BABDBF;stroke-width:1.0416666666666667;"/><ellipse cx="181.7708" cy="293.6523" fill="none" rx="11.4583" ry="11.4583" style="stroke:#2683B9;stroke-width:1.0416666666666667;"/><ellipse cx="181.7708" cy="293.6523" fill="#2683B9" rx="6.25" ry="6.25" style="stroke:#13415C;stroke-width:1.0416666666666667;"/><line style="stroke:#2FA4E7;stroke-width:3.125;" x1="181.7708" x2="181.7708" y1="31.25" y2="52.0833"/><polygon fill="#2FA4E7" points="177.6042,41.6667,181.7708,52.0833,185.9375,41.6667,181.7708,45.8333" style="stroke:#2FA4E7;stroke-width:1.0416666666666667;"/><line style="stroke:#2FA4E7;stroke-width:3.125;" x1="181.7708" x2="181.7708" y1="135.3841" y2="166.6178"/><polygon fill="#2FA4E7" points="177.6042,156.2012,181.7708,166.6178,185.9375,156.2012,181.7708,160.3678" style="stroke:#2FA4E7;stroke-width:1.0416666666666667;"/><line style="stroke:#2FA4E7;stroke-width:3.125;" x1="340.1042" x2="2158.3333" y1="122.8841" y2="122.8841"/><polygon fill="#2FA4E7" points="2154.1667,180.1432,2158.3333,190.5599,2162.5,180.1432,2158.3333,184.3099" style="stroke:#2FA4E7;stroke-width:3.125;"/><line style="stroke:#2FA4E7;stroke-width:3.125;" x1="2158.3333" x2="2158.3333" y1="122.8841" y2="248.8607"/><line style="stroke:#2FA4E7;stroke-width:3.125;" x1="2158.3333" x2="194.2708" y1="248.8607" y2="248.8607"/><polygon fill="#2FA4E7" points="204.6875,244.694,194.2708,248.8607,204.6875,253.0273,200.5208,248.8607" style="stroke:#2FA4E7;stroke-width:1.0416666666666667;"/><line style="stroke:#2FA4E7;stroke-width:3.125;" x1="181.7708" x2="181.7708" y1="204.0853" y2="236.3607"/><polygon fill="#2FA4E7" points="177.6042,225.944,181.7708,236.3607,185.9375,225.944,181.7708,230.1107" style="stroke:#2FA4E7;stroke-width:1.0416666666666667;"/><line style="stroke:#2FA4E7;stroke-width:3.125;" x1="181.7708" x2="181.7708" y1="89.5508" y2="110.3841"/><polygon fill="#2FA4E7" points="177.6042,99.9674,181.7708,110.3841,185.9375,99.9674,181.7708,104.1341" style="stroke:#2FA4E7;stroke-width:1.0416666666666667;"/><line style="stroke:#2FA4E7;stroke-width:3.125;" x1="181.7708" x2="181.7708" y1="261.3607" y2="282.194"/><polygon fill="#2FA4E7" points="177.6042,271.7773,181.7708,282.194,185.9375,271.7773,181.7708,275.944" style="stroke:#2FA4E7;stroke-width:1.0416666666666667;"/><!--SRC=[bL9BRjim4Dth5Ayx1p1y06VbrW6QHP2WIGv0aoE9hJnKoQ4KtRupIfeWNhKRKGJnlZDVfASpmLEk0pbkYhWipVvXSCoHEpWEk7aXNoKclcvYYysHsiYqljoHApKJ8kDuTxZzjeK1xVfmV3nSGSaPcwzaJ24nNJK09o7asFMYb_igOvKzNZa3nfn-aXTqoGrbbV2rI3fJHgRVDMOror8KUGXJzBJ7So6JGVW_1aX2LsFu2vveIAEz686dKdRuGLqTN1uM1KwHvfMiZi792bBTaokgc1Y-TznHiU3lQamK2bB6sULV991C7CfEhUkvjj3Ge2IRxsdMSd1h7-cTM4dxjvB_CStrPQ-FDaQS5cX2bjWkDW5B-khAYEXbL6PdSrMRBPPKypkxnd_gOu7NQPvedPt2SwfT_-4Wib2sPieMkWOJBVhp4JXhHIxxVeTxzcJywDsaYmElgvPHEQYGg1Spfmvc3NzX0xDZsQvOir98BYgnmk26s37cAFtRODQKdwjMbLQtEur_0000]--></g></svg>