<?xml version="1.0" encoding="us-ascii" standalone="no"?><svg xmlns="http://www.w3.org/2000/svg" xmlns:xlink="http://www.w3.org/1999/xlink" contentStyleType="text/css" height="315.625px" preserveAspectRatio="none" style="width:3038px;height:315px;" version="1.1" viewBox="0 0 3038 315" width="3038.5417px" zoomAndPan="magnify"><defs><linearGradient id="g1rmhiointqb0b0" x1="50%" x2="50%" y1="0%" y2="100%"><stop offset="0%" stop-color="#59B6EC"/><stop offset="100%" stop-color="#2FA4E7"/></linearGradient><linearGradient id="g1rmhiointqb0b1" x1="50%" x2="50%" y1="0%" y2="100%"><stop offset="0%" stop-color="#35638F"/><stop offset="100%" stop-color="#033C73"/></linearGradient><linearGradient id="g1rmhiointqb0b2" x1="50%" x2="50%" y1="0%" y2="100%"><stop offset="0%" stop-color="#FFFFFF"/><stop offset="100%" stop-color="#EDF0F2"/></linearGradient></defs><g><ellipse cx="224.4792" cy="20.8333" fill="#033C73" rx="10.4167" ry="10.4167" style="stroke:#2683B9;stroke-width:1.0416666666666667;"/><rect fill="url(#g1rmhiointqb0b0)" height="37.4674" rx="4.1667" ry="4.1667" style="stroke:#2FA4E7;stroke-width:1.0416666666666667;" width="301.0417" x="73.9583" y="52.0833"/><text fill="#FFFFFF" font-family="Verdana" font-size="12.5" lengthAdjust="spacing" textLength="278.125" x="85.4167" y="75.1444">Post-Production Analysis and Improvement</text><path d="M2090.625,165.5924 L2090.625,215.5273 L3026.0417,215.5273 L3026.0417,176.0091 L3015.625,165.5924 L2090.625,165.5924 " fill="url(#g1rmhiointqb0b1)" style="stroke:#033C73;stroke-width:1.0416666666666667;"/><path d="M3015.625,165.5924 L3015.625,176.0091 L3026.0417,176.0091 L3015.625,165.5924 " fill="url(#g1rmhiointqb0b1)" style="stroke:#033C73;stroke-width:1.0416666666666667;"/><text fill="#FFFFFF" font-family="Verdana" font-size="12.5" lengthAdjust="spacing" textLength="311.4583" x="2102.0833" y="187.6119">Output: Analysis results and improvement plans</text><text fill="#FFFFFF" font-family="Verdana" font-size="12.5" lengthAdjust="spacing" textLength="903.125" x="2102.0833" y="202.1627">Advice: Implement the improvement plans in the next development cycle. Use the analysis results to inform future planning and execution.</text><path d="M458.3333,167.6595 L458.3333,181.1849 L437.5,185.3516 L458.3333,189.5182 L458.3333,203.0436 A0,0 0 0 0 458.3333,203.0436 L2065.625,203.0436 A0,0 0 0 0 2065.625,203.0436 L2065.625,178.0762 L2055.2083,167.6595 L458.3333,167.6595 A0,0 0 0 0 458.3333,167.6595 " fill="url(#g1rmhiointqb0b1)" style="stroke:#033C73;stroke-width:1.0416666666666667;"/><path d="M2055.2083,167.6595 L2055.2083,178.0762 L2065.625,178.0762 L2055.2083,167.6595 " fill="url(#g1rmhiointqb0b1)" style="stroke:#033C73;stroke-width:1.0416666666666667;"/><text fill="#FFFFFF" font-family="Verdana" font-size="12.5" lengthAdjust="spacing" textLength="1575" x="469.7917" y="189.679">After deploying your product and collecting customer feedback, analyze the data and develop plans for improvement. Implement these plans in the next development cycle and use the analysis results to inform future planning and execution.</text><rect fill="url(#g1rmhiointqb0b0)" height="37.4674" rx="4.1667" ry="4.1667" style="stroke:#2FA4E7;stroke-width:1.0416666666666667;" width="426.0417" x="11.4583" y="166.6178"/><text fill="#FFFFFF" font-family="Verdana" font-size="12.5" lengthAdjust="spacing" textLength="403.125" x="22.9167" y="189.679">Analyze post-production data and develop improvement plans</text><polygon fill="url(#g1rmhiointqb0b2)" points="169.7917,110.3841,279.1667,110.3841,291.6667,122.8841,279.1667,135.3841,169.7917,135.3841,157.2917,122.8841,169.7917,110.3841" style="stroke:#BABDBF;stroke-width:1.0416666666666667;"/><text fill="#343A40" font-family="Verdana" font-size="12.5" lengthAdjust="spacing" textLength="107.2917" x="233.8542" y="152.1952">How do I do that</text><text fill="#343A40" font-family="Verdana" font-size="12.5" lengthAdjust="spacing" textLength="98.9583" x="175" y="127.2115">Feedback Loop</text><text fill="#343A40" font-family="Verdana" font-size="12.5" lengthAdjust="spacing" textLength="73.9583" x="296.875" y="114.7278">Being done</text><polygon fill="url(#g1rmhiointqb0b2)" points="224.4792,236.3607,236.9792,248.8607,224.4792,261.3607,211.9792,248.8607,224.4792,236.3607" style="stroke:#BABDBF;stroke-width:1.0416666666666667;"/><ellipse cx="224.4792" cy="293.6523" fill="none" rx="11.4583" ry="11.4583" style="stroke:#2683B9;stroke-width:1.0416666666666667;"/><ellipse cx="224.4792" cy="293.6523" fill="#2683B9" rx="6.25" ry="6.25" style="stroke:#13415C;stroke-width:1.0416666666666667;"/><line style="stroke:#2FA4E7;stroke-width:3.125;" x1="224.4792" x2="224.4792" y1="31.25" y2="52.0833"/><polygon fill="#2FA4E7" points="220.3125,41.6667,224.4792,52.0833,228.6458,41.6667,224.4792,45.8333" style="stroke:#2FA4E7;stroke-width:1.0416666666666667;"/><line style="stroke:#2FA4E7;stroke-width:3.125;" x1="224.4792" x2="224.4792" y1="135.3841" y2="166.6178"/><polygon fill="#2FA4E7" points="220.3125,156.2012,224.4792,166.6178,228.6458,156.2012,224.4792,160.3678" style="stroke:#2FA4E7;stroke-width:1.0416666666666667;"/><line style="stroke:#2FA4E7;stroke-width:3.125;" x1="291.6667" x2="2076.0417" y1="122.8841" y2="122.8841"/><polygon fill="#2FA4E7" points="2071.875,180.1432,2076.0417,190.5599,2080.2083,180.1432,2076.0417,184.3099" style="stroke:#2FA4E7;stroke-width:3.125;"/><line style="stroke:#2FA4E7;stroke-width:3.125;" x1="2076.0417" x2="2076.0417" y1="122.8841" y2="248.8607"/><line style="stroke:#2FA4E7;stroke-width:3.125;" x1="2076.0417" x2="236.9792" y1="248.8607" y2="248.8607"/><polygon fill="#2FA4E7" points="247.3958,244.694,236.9792,248.8607,247.3958,253.0273,243.2292,248.8607" style="stroke:#2FA4E7;stroke-width:1.0416666666666667;"/><line style="stroke:#2FA4E7;stroke-width:3.125;" x1="224.4792" x2="224.4792" y1="204.0853" y2="236.3607"/><polygon fill="#2FA4E7" points="220.3125,225.944,224.4792,236.3607,228.6458,225.944,224.4792,230.1107" style="stroke:#2FA4E7;stroke-width:1.0416666666666667;"/><line style="stroke:#2FA4E7;stroke-width:3.125;" x1="224.4792" x2="224.4792" y1="89.5508" y2="110.3841"/><polygon fill="#2FA4E7" points="220.3125,99.9674,224.4792,110.3841,228.6458,99.9674,224.4792,104.1341" style="stroke:#2FA4E7;stroke-width:1.0416666666666667;"/><line style="stroke:#2FA4E7;stroke-width:3.125;" x1="224.4792" x2="224.4792" y1="261.3607" y2="282.194"/><polygon fill="#2FA4E7" points="220.3125,271.7773,224.4792,282.194,228.6458,271.7773,224.4792,275.944" style="stroke:#2FA4E7;stroke-width:1.0416666666666667;"/><!--SRC=[hP91JWCn34NtSmgpQoNe0QQhia0W8T4D1mY9fut8s57Yb4vFZvEfL6WtBDYCbB7z_FzFxcIF8uB5L08QwhAO95s_vImFsyIkMF5Ci24Jfkmp67BmCiR41nqZMNT-WCKJelimzXDUcUCI54cmU4HFEt1CkEm0Y0KX-TrUzF1M91RfBzI4kGIPwVv2XnWCPHtOk8EtsDVDOQxeZjjEyDGAX4S1XmSC75lLJZRW2jupjhgvtYkiemEd4OOY9M73KTLV5U4HRQanh5GAwezgfiEWjCKpVwb7UAaVsHkfNllcwwIKccAyfEYCc4OyQxjriBwEQZC89ksFWQUgP-AIu8niACiXeEArPaiM7hLzED_7_UpqDBk-sJvdfhP_wbZz3ZdZNw9jsFAlwPBpWxv6Zjy0]--></g></svg>