<?xml version="1.0" encoding="us-ascii" standalone="no"?><svg xmlns="http://www.w3.org/2000/svg" xmlns:xlink="http://www.w3.org/1999/xlink" contentStyleType="text/css" height="315.625px" preserveAspectRatio="none" style="width:2577px;height:315px;" version="1.1" viewBox="0 0 2577 315" width="2577.0833px" zoomAndPan="magnify"><defs><linearGradient id="ggjyca8r6aft50" x1="50%" x2="50%" y1="0%" y2="100%"><stop offset="0%" stop-color="#59B6EC"/><stop offset="100%" stop-color="#2FA4E7"/></linearGradient><linearGradient id="ggjyca8r6aft51" x1="50%" x2="50%" y1="0%" y2="100%"><stop offset="0%" stop-color="#35638F"/><stop offset="100%" stop-color="#033C73"/></linearGradient><linearGradient id="ggjyca8r6aft52" x1="50%" x2="50%" y1="0%" y2="100%"><stop offset="0%" stop-color="#FFFFFF"/><stop offset="100%" stop-color="#EDF0F2"/></linearGradient></defs><g><ellipse cx="132.2917" cy="20.8333" fill="#033C73" rx="10.4167" ry="10.4167" style="stroke:#2683B9;stroke-width:1.0416666666666667;"/><rect fill="url(#ggjyca8r6aft50)" height="37.4674" rx="4.1667" ry="4.1667" style="stroke:#2FA4E7;stroke-width:1.0416666666666667;" width="108.3333" x="78.125" y="52.0833"/><text fill="#FFFFFF" font-family="Verdana" font-size="12.5" lengthAdjust="spacing" textLength="85.4167" x="89.5833" y="75.1444">Development</text><path d="M1525,165.5924 L1525,215.5273 L2564.5833,215.5273 L2564.5833,176.0091 L2554.1667,165.5924 L1525,165.5924 " fill="url(#ggjyca8r6aft51)" style="stroke:#033C73;stroke-width:1.0416666666666667;"/><path d="M2554.1667,165.5924 L2554.1667,176.0091 L2564.5833,176.0091 L2554.1667,165.5924 " fill="url(#ggjyca8r6aft51)" style="stroke:#033C73;stroke-width:1.0416666666666667;"/><text fill="#FFFFFF" font-family="Verdana" font-size="12.5" lengthAdjust="spacing" textLength="246.875" x="1536.4583" y="187.6119">Output: Developed product or feature</text><text fill="#FFFFFF" font-family="Verdana" font-size="12.5" lengthAdjust="spacing" textLength="1007.2917" x="1536.4583" y="202.1627">Advice: Use the developed product or feature as a basis for testing and validation. Ensure it meets the defined project goals and customer requirements.</text><path d="M253.125,167.6595 L253.125,181.1849 L232.2917,185.3516 L253.125,189.5182 L253.125,203.0436 A0,0 0 0 0 253.125,203.0436 L1500,203.0436 A0,0 0 0 0 1500,203.0436 L1500,178.0762 L1489.5833,167.6595 L253.125,167.6595 A0,0 0 0 0 253.125,167.6595 " fill="url(#ggjyca8r6aft51)" style="stroke:#033C73;stroke-width:1.0416666666666667;"/><path d="M1489.5833,167.6595 L1489.5833,178.0762 L1500,178.0762 L1489.5833,167.6595 " fill="url(#ggjyca8r6aft51)" style="stroke:#033C73;stroke-width:1.0416666666666667;"/><text fill="#FFFFFF" font-family="Verdana" font-size="12.5" lengthAdjust="spacing" textLength="1214.5833" x="264.5833" y="189.679">Use the defined project goals and customer requirements to guide the development process. Regularly review and update these based on changes in customer needs or market trends.</text><rect fill="url(#ggjyca8r6aft50)" height="37.4674" rx="4.1667" ry="4.1667" style="stroke:#2FA4E7;stroke-width:1.0416666666666667;" width="200" x="32.2917" y="166.6178"/><text fill="#FFFFFF" font-family="Verdana" font-size="12.5" lengthAdjust="spacing" textLength="177.0833" x="43.75" y="189.679">Develop product or feature</text><polygon fill="url(#ggjyca8r6aft52)" points="33.3333,110.3841,231.25,110.3841,243.75,122.8841,231.25,135.3841,33.3333,135.3841,20.8333,122.8841,33.3333,110.3841" style="stroke:#BABDBF;stroke-width:1.0416666666666667;"/><text fill="#343A40" font-family="Verdana" font-size="12.5" lengthAdjust="spacing" textLength="107.2917" x="141.6667" y="152.1952">How do I do that</text><text fill="#343A40" font-family="Verdana" font-size="12.5" lengthAdjust="spacing" textLength="187.5" x="38.5417" y="127.2115">Analyze in DMAIC, Do in PDSA</text><text fill="#343A40" font-family="Verdana" font-size="12.5" lengthAdjust="spacing" textLength="73.9583" x="248.9583" y="114.7278">Being done</text><polygon fill="url(#ggjyca8r6aft52)" points="132.2917,236.3607,144.7917,248.8607,132.2917,261.3607,119.7917,248.8607,132.2917,236.3607" style="stroke:#BABDBF;stroke-width:1.0416666666666667;"/><ellipse cx="132.2917" cy="293.6523" fill="none" rx="11.4583" ry="11.4583" style="stroke:#2683B9;stroke-width:1.0416666666666667;"/><ellipse cx="132.2917" cy="293.6523" fill="#2683B9" rx="6.25" ry="6.25" style="stroke:#13415C;stroke-width:1.0416666666666667;"/><line style="stroke:#2FA4E7;stroke-width:3.125;" x1="132.2917" x2="132.2917" y1="31.25" y2="52.0833"/><polygon fill="#2FA4E7" points="128.125,41.6667,132.2917,52.0833,136.4583,41.6667,132.2917,45.8333" style="stroke:#2FA4E7;stroke-width:1.0416666666666667;"/><line style="stroke:#2FA4E7;stroke-width:3.125;" x1="132.2917" x2="132.2917" y1="135.3841" y2="166.6178"/><polygon fill="#2FA4E7" points="128.125,156.2012,132.2917,166.6178,136.4583,156.2012,132.2917,160.3678" style="stroke:#2FA4E7;stroke-width:1.0416666666666667;"/><line style="stroke:#2FA4E7;stroke-width:3.125;" x1="243.75" x2="1510.4167" y1="122.8841" y2="122.8841"/><polygon fill="#2FA4E7" points="1506.25,180.1432,1510.4167,190.5599,1514.5833,180.1432,1510.4167,184.3099" style="stroke:#2FA4E7;stroke-width:3.125;"/><line style="stroke:#2FA4E7;stroke-width:3.125;" x1="1510.4167" x2="1510.4167" y1="122.8841" y2="248.8607"/><line style="stroke:#2FA4E7;stroke-width:3.125;" x1="1510.4167" x2="144.7917" y1="248.8607" y2="248.8607"/><polygon fill="#2FA4E7" points="155.2083,244.694,144.7917,248.8607,155.2083,253.0273,151.0417,248.8607" style="stroke:#2FA4E7;stroke-width:1.0416666666666667;"/><line style="stroke:#2FA4E7;stroke-width:3.125;" x1="132.2917" x2="132.2917" y1="204.0853" y2="236.3607"/><polygon fill="#2FA4E7" points="128.125,225.944,132.2917,236.3607,136.4583,225.944,132.2917,230.1107" style="stroke:#2FA4E7;stroke-width:1.0416666666666667;"/><line style="stroke:#2FA4E7;stroke-width:3.125;" x1="132.2917" x2="132.2917" y1="89.5508" y2="110.3841"/><polygon fill="#2FA4E7" points="128.125,99.9674,132.2917,110.3841,136.4583,99.9674,132.2917,104.1341" style="stroke:#2FA4E7;stroke-width:1.0416666666666667;"/><line style="stroke:#2FA4E7;stroke-width:3.125;" x1="132.2917" x2="132.2917" y1="261.3607" y2="282.194"/><polygon fill="#2FA4E7" points="128.125,271.7773,132.2917,282.194,136.4583,271.7773,132.2917,275.944" style="stroke:#2FA4E7;stroke-width:1.0416666666666667;"/><!--SRC=[bLBDJiCm3BxtASnjaz0UO3iLYiGE20JY0KBpjGsaJacSJkFfSSO0CI4aBf4SszzVSYO3Hb2Bc3qCLqbCb6hTO8OFqmYMJUKwMjHi_FuDv9YQctfxUKvDACLTyr0lIK6O5XTmt9CDZ6L5n450qVM3Q76RPSgofYCkB4qnsDmAXKWTZEG87Qljx5giwJ6XO9BzOvnC8aDF9hb4dLuBaXH-mvPcuvqruWAlw8fJcNP28o3fYDiv_a1zXgBsmVXqs6npaZ0YKiHhTX4bWRHIQT1ciLJ1gxZ5TTYfKzgMGmOZnV5dQh-8tPm6yktmNqf80lNPsH_nb4u1Q97IYkxHPs-Yt-lYxB0xWEL9upWiAQzcfeo1gHqCzqZb7R_O6B2fA1zDV86GH7L-aW1Rr-bF2TCx]--></g></svg>