<?xml version="1.0" encoding="us-ascii" standalone="no"?><svg xmlns="http://www.w3.org/2000/svg" xmlns:xlink="http://www.w3.org/1999/xlink" contentStyleType="text/css" height="315.625px" preserveAspectRatio="none" style="width:2702px;height:315px;" version="1.1" viewBox="0 0 2702 315" width="2702.0833px" zoomAndPan="magnify"><defs><linearGradient id="g70xbddkri0hl0" x1="50%" x2="50%" y1="0%" y2="100%"><stop offset="0%" stop-color="#59B6EC"/><stop offset="100%" stop-color="#2FA4E7"/></linearGradient><linearGradient id="g70xbddkri0hl1" x1="50%" x2="50%" y1="0%" y2="100%"><stop offset="0%" stop-color="#35638F"/><stop offset="100%" stop-color="#033C73"/></linearGradient><linearGradient id="g70xbddkri0hl2" x1="50%" x2="50%" y1="0%" y2="100%"><stop offset="0%" stop-color="#FFFFFF"/><stop offset="100%" stop-color="#EDF0F2"/></linearGradient></defs><g><ellipse cx="175.5208" cy="20.8333" fill="#033C73" rx="10.4167" ry="10.4167" style="stroke:#2683B9;stroke-width:1.0416666666666667;"/><rect fill="url(#g70xbddkri0hl0)" height="37.4674" rx="4.1667" ry="4.1667" style="stroke:#2FA4E7;stroke-width:1.0416666666666667;" width="196.875" x="77.0833" y="52.0833"/><text fill="#FFFFFF" font-family="Verdana" font-size="12.5" lengthAdjust="spacing" textLength="173.9583" x="88.5417" y="75.1444">Deployment and Feedback</text><path d="M1832.2917,165.5924 L1832.2917,215.5273 L2689.5833,215.5273 L2689.5833,176.0091 L2679.1667,165.5924 L1832.2917,165.5924 " fill="url(#g70xbddkri0hl1)" style="stroke:#033C73;stroke-width:1.0416666666666667;"/><path d="M2679.1667,165.5924 L2679.1667,176.0091 L2689.5833,176.0091 L2679.1667,165.5924 " fill="url(#g70xbddkri0hl1)" style="stroke:#033C73;stroke-width:1.0416666666666667;"/><text fill="#FFFFFF" font-family="Verdana" font-size="12.5" lengthAdjust="spacing" textLength="391.6667" x="1843.75" y="187.6119">Output: Deployed product and collected customer feedback</text><text fill="#FFFFFF" font-family="Verdana" font-size="12.5" lengthAdjust="spacing" textLength="825" x="1843.75" y="202.1627">Advice: Use the feedback to identify areas for improvement. Incorporate these improvements into the next development cycle.</text><path d="M360.4167,167.6595 L360.4167,181.1849 L339.5833,185.3516 L360.4167,189.5182 L360.4167,203.0436 A0,0 0 0 0 360.4167,203.0436 L1807.2917,203.0436 A0,0 0 0 0 1807.2917,203.0436 L1807.2917,178.0762 L1796.875,167.6595 L360.4167,167.6595 A0,0 0 0 0 360.4167,167.6595 " fill="url(#g70xbddkri0hl1)" style="stroke:#033C73;stroke-width:1.0416666666666667;"/><path d="M1796.875,167.6595 L1796.875,178.0762 L1807.2917,178.0762 L1796.875,167.6595 " fill="url(#g70xbddkri0hl1)" style="stroke:#033C73;stroke-width:1.0416666666666667;"/><text fill="#FFFFFF" font-family="Verdana" font-size="12.5" lengthAdjust="spacing" textLength="1414.5833" x="371.875" y="189.679">After testing and validating your product or feature, deploy it and collect customer feedback. Use this feedback to identify areas for improvement and incorporate these improvements into the next development cycle.</text><rect fill="url(#g70xbddkri0hl0)" height="37.4674" rx="4.1667" ry="4.1667" style="stroke:#2FA4E7;stroke-width:1.0416666666666667;" width="328.125" x="11.4583" y="166.6178"/><text fill="#FFFFFF" font-family="Verdana" font-size="12.5" lengthAdjust="spacing" textLength="305.2083" x="22.9167" y="189.679">Deploy product and collect customer feedback</text><polygon fill="url(#g70xbddkri0hl2)" points="75.5208,110.3841,275.5208,110.3841,288.0208,122.8841,275.5208,135.3841,75.5208,135.3841,63.0208,122.8841,75.5208,110.3841" style="stroke:#BABDBF;stroke-width:1.0416666666666667;"/><text fill="#343A40" font-family="Verdana" font-size="12.5" lengthAdjust="spacing" textLength="107.2917" x="184.8958" y="152.1952">How do I do that</text><text fill="#343A40" font-family="Verdana" font-size="12.5" lengthAdjust="spacing" textLength="189.5833" x="80.7292" y="127.2115">Control in DMAIC, Act in PDSA</text><text fill="#343A40" font-family="Verdana" font-size="12.5" lengthAdjust="spacing" textLength="73.9583" x="293.2292" y="114.7278">Being done</text><polygon fill="url(#g70xbddkri0hl2)" points="175.5208,236.3607,188.0208,248.8607,175.5208,261.3607,163.0208,248.8607,175.5208,236.3607" style="stroke:#BABDBF;stroke-width:1.0416666666666667;"/><ellipse cx="175.5208" cy="293.6523" fill="none" rx="11.4583" ry="11.4583" style="stroke:#2683B9;stroke-width:1.0416666666666667;"/><ellipse cx="175.5208" cy="293.6523" fill="#2683B9" rx="6.25" ry="6.25" style="stroke:#13415C;stroke-width:1.0416666666666667;"/><line style="stroke:#2FA4E7;stroke-width:3.125;" x1="175.5208" x2="175.5208" y1="31.25" y2="52.0833"/><polygon fill="#2FA4E7" points="171.3542,41.6667,175.5208,52.0833,179.6875,41.6667,175.5208,45.8333" style="stroke:#2FA4E7;stroke-width:1.0416666666666667;"/><line style="stroke:#2FA4E7;stroke-width:3.125;" x1="175.5208" x2="175.5208" y1="135.3841" y2="166.6178"/><polygon fill="#2FA4E7" points="171.3542,156.2012,175.5208,166.6178,179.6875,156.2012,175.5208,160.3678" style="stroke:#2FA4E7;stroke-width:1.0416666666666667;"/><line style="stroke:#2FA4E7;stroke-width:3.125;" x1="288.0208" x2="1817.7083" y1="122.8841" y2="122.8841"/><polygon fill="#2FA4E7" points="1813.5417,180.1432,1817.7083,190.5599,1821.875,180.1432,1817.7083,184.3099" style="stroke:#2FA4E7;stroke-width:3.125;"/><line style="stroke:#2FA4E7;stroke-width:3.125;" x1="1817.7083" x2="1817.7083" y1="122.8841" y2="248.8607"/><line style="stroke:#2FA4E7;stroke-width:3.125;" x1="1817.7083" x2="188.0208" y1="248.8607" y2="248.8607"/><polygon fill="#2FA4E7" points="198.4375,244.694,188.0208,248.8607,198.4375,253.0273,194.2708,248.8607" style="stroke:#2FA4E7;stroke-width:1.0416666666666667;"/><line style="stroke:#2FA4E7;stroke-width:3.125;" x1="175.5208" x2="175.5208" y1="204.0853" y2="236.3607"/><polygon fill="#2FA4E7" points="171.3542,225.944,175.5208,236.3607,179.6875,225.944,175.5208,230.1107" style="stroke:#2FA4E7;stroke-width:1.0416666666666667;"/><line style="stroke:#2FA4E7;stroke-width:3.125;" x1="175.5208" x2="175.5208" y1="89.5508" y2="110.3841"/><polygon fill="#2FA4E7" points="171.3542,99.9674,175.5208,110.3841,179.6875,99.9674,175.5208,104.1341" style="stroke:#2FA4E7;stroke-width:1.0416666666666667;"/><line style="stroke:#2FA4E7;stroke-width:3.125;" x1="175.5208" x2="175.5208" y1="261.3607" y2="282.194"/><polygon fill="#2FA4E7" points="171.3542,271.7773,175.5208,282.194,179.6875,271.7773,175.5208,275.944" style="stroke:#2FA4E7;stroke-width:1.0416666666666667;"/><!--SRC=[hPBFIWCn4CRl-nJZhONI1sXFQulOWoY83n2JRsqmcrcIoUg-lPDjAQA225uMPeVvVN_8bHpHWonI2J2noMAID9izXi1JZoXaegCRm3qR-xfjV4UB7KT97CX7sj-rXzsAMYjrUjW_jajIOgJ5DNny8SSHouOeie2IVpcA3lT5XY8REed0qP3O5NkIiXm2hEXVMx9mZqJTMLrFMpTwYmqzPLIToug4oJkrwxk9J8B9r74YtojwHCsnfaEqd0PEHkPR9NnQP_MlZCgCU1To615uc1kmamrOgphKNqtI8EZrufRVD20TwaUEHchGStC_HVeUQFkrcROJNGkorFBgxMY2TsOU9oxfmkLACL8ILkfrblI_gAtFhVdyXzfcfF_7vgBpdRuo7Zu0]--></g></svg>