<?xml version="1.0" encoding="us-ascii" standalone="no"?><svg xmlns="http://www.w3.org/2000/svg" xmlns:xlink="http://www.w3.org/1999/xlink" contentStyleType="text/css" height="315.625px" preserveAspectRatio="none" style="width:2803px;height:315px;" version="1.1" viewBox="0 0 2803 315" width="2803.125px" zoomAndPan="magnify"><defs><linearGradient id="gv9gqmsti6r0b0" x1="50%" x2="50%" y1="0%" y2="100%"><stop offset="0%" stop-color="#59B6EC"/><stop offset="100%" stop-color="#2FA4E7"/></linearGradient><linearGradient id="gv9gqmsti6r0b1" x1="50%" x2="50%" y1="0%" y2="100%"><stop offset="0%" stop-color="#35638F"/><stop offset="100%" stop-color="#033C73"/></linearGradient><linearGradient id="gv9gqmsti6r0b2" x1="50%" x2="50%" y1="0%" y2="100%"><stop offset="0%" stop-color="#FFFFFF"/><stop offset="100%" stop-color="#EDF0F2"/></linearGradient></defs><g><ellipse cx="143.2292" cy="20.8333" fill="#033C73" rx="10.4167" ry="10.4167" style="stroke:#2683B9;stroke-width:1.0416666666666667;"/><rect fill="url(#gv9gqmsti6r0b0)" height="37.4674" rx="4.1667" ry="4.1667" style="stroke:#2FA4E7;stroke-width:1.0416666666666667;" width="168.75" x="58.8542" y="52.0833"/><text fill="#FFFFFF" font-family="Verdana" font-size="12.5" lengthAdjust="spacing" textLength="145.8333" x="70.3125" y="75.1444">Testing and Validation</text><path d="M1736.9792,165.5924 L1736.9792,215.5273 L2791.1458,215.5273 L2791.1458,176.0091 L2780.7292,165.5924 L1736.9792,165.5924 " fill="url(#gv9gqmsti6r0b1)" style="stroke:#033C73;stroke-width:1.0416666666666667;"/><path d="M2780.7292,165.5924 L2780.7292,176.0091 L2791.1458,176.0091 L2780.7292,165.5924 " fill="url(#gv9gqmsti6r0b1)" style="stroke:#033C73;stroke-width:1.0416666666666667;"/><text fill="#FFFFFF" font-family="Verdana" font-size="12.5" lengthAdjust="spacing" textLength="269.7917" x="1748.4375" y="187.6119">Output: Test results and identified issues</text><text fill="#FFFFFF" font-family="Verdana" font-size="12.5" lengthAdjust="spacing" textLength="1021.875" x="1748.4375" y="202.1627">Advice: Use the test results and identified issues to make improvements to the product. Prioritize issues based on their impact on the customer experience.</text><path d="M294.2708,167.6595 L294.2708,181.1849 L273.4375,185.3516 L294.2708,189.5182 L294.2708,203.0436 A0,0 0 0 0 294.2708,203.0436 L1711.9792,203.0436 A0,0 0 0 0 1711.9792,203.0436 L1711.9792,178.0762 L1701.5625,167.6595 L294.2708,167.6595 A0,0 0 0 0 294.2708,167.6595 " fill="url(#gv9gqmsti6r0b1)" style="stroke:#033C73;stroke-width:1.0416666666666667;"/><path d="M1701.5625,167.6595 L1701.5625,178.0762 L1711.9792,178.0762 L1701.5625,167.6595 " fill="url(#gv9gqmsti6r0b1)" style="stroke:#033C73;stroke-width:1.0416666666666667;"/><text fill="#FFFFFF" font-family="Verdana" font-size="12.5" lengthAdjust="spacing" textLength="1385.4167" x="305.7292" y="189.679">After developing your product or feature, test it to ensure it meets the defined project goals and customer requirements. Identify any issues and prioritize them based on their impact on the customer experience.</text><rect fill="url(#gv9gqmsti6r0b0)" height="37.4674" rx="4.1667" ry="4.1667" style="stroke:#2FA4E7;stroke-width:1.0416666666666667;" width="260.4167" x="13.0208" y="166.6178"/><text fill="#FFFFFF" font-family="Verdana" font-size="12.5" lengthAdjust="spacing" textLength="237.5" x="24.4792" y="189.679">Test and validate product or feature</text><polygon fill="url(#gv9gqmsti6r0b2)" points="33.3333,110.3841,253.125,110.3841,265.625,122.8841,253.125,135.3841,33.3333,135.3841,20.8333,122.8841,33.3333,110.3841" style="stroke:#BABDBF;stroke-width:1.0416666666666667;"/><text fill="#343A40" font-family="Verdana" font-size="12.5" lengthAdjust="spacing" textLength="107.2917" x="152.6042" y="152.1952">How do I do that</text><text fill="#343A40" font-family="Verdana" font-size="12.5" lengthAdjust="spacing" textLength="209.375" x="38.5417" y="127.2115">Improve in DMAIC, Study in PDSA</text><text fill="#343A40" font-family="Verdana" font-size="12.5" lengthAdjust="spacing" textLength="73.9583" x="270.8333" y="114.7278">Being done</text><polygon fill="url(#gv9gqmsti6r0b2)" points="143.2292,236.3607,155.7292,248.8607,143.2292,261.3607,130.7292,248.8607,143.2292,236.3607" style="stroke:#BABDBF;stroke-width:1.0416666666666667;"/><ellipse cx="143.2292" cy="293.6523" fill="none" rx="11.4583" ry="11.4583" style="stroke:#2683B9;stroke-width:1.0416666666666667;"/><ellipse cx="143.2292" cy="293.6523" fill="#2683B9" rx="6.25" ry="6.25" style="stroke:#13415C;stroke-width:1.0416666666666667;"/><line style="stroke:#2FA4E7;stroke-width:3.125;" x1="143.2292" x2="143.2292" y1="31.25" y2="52.0833"/><polygon fill="#2FA4E7" points="139.0625,41.6667,143.2292,52.0833,147.3958,41.6667,143.2292,45.8333" style="stroke:#2FA4E7;stroke-width:1.0416666666666667;"/><line style="stroke:#2FA4E7;stroke-width:3.125;" x1="143.2292" x2="143.2292" y1="135.3841" y2="166.6178"/><polygon fill="#2FA4E7" points="139.0625,156.2012,143.2292,166.6178,147.3958,156.2012,143.2292,160.3678" style="stroke:#2FA4E7;stroke-width:1.0416666666666667;"/><line style="stroke:#2FA4E7;stroke-width:3.125;" x1="265.625" x2="1722.3958" y1="122.8841" y2="122.8841"/><polygon fill="#2FA4E7" points="1718.2292,180.1432,1722.3958,190.5599,1726.5625,180.1432,1722.3958,184.3099" style="stroke:#2FA4E7;stroke-width:3.125;"/><line style="stroke:#2FA4E7;stroke-width:3.125;" x1="1722.3958" x2="1722.3958" y1="122.8841" y2="248.8607"/><line style="stroke:#2FA4E7;stroke-width:3.125;" x1="1722.3958" x2="155.7292" y1="248.8607" y2="248.8607"/><polygon fill="#2FA4E7" points="166.1458,244.694,155.7292,248.8607,166.1458,253.0273,161.9792,248.8607" style="stroke:#2FA4E7;stroke-width:1.0416666666666667;"/><line style="stroke:#2FA4E7;stroke-width:3.125;" x1="143.2292" x2="143.2292" y1="204.0853" y2="236.3607"/><polygon fill="#2FA4E7" points="139.0625,225.944,143.2292,236.3607,147.3958,225.944,143.2292,230.1107" style="stroke:#2FA4E7;stroke-width:1.0416666666666667;"/><line style="stroke:#2FA4E7;stroke-width:3.125;" x1="143.2292" x2="143.2292" y1="89.5508" y2="110.3841"/><polygon fill="#2FA4E7" points="139.0625,99.9674,143.2292,110.3841,147.3958,99.9674,143.2292,104.1341" style="stroke:#2FA4E7;stroke-width:1.0416666666666667;"/><line style="stroke:#2FA4E7;stroke-width:3.125;" x1="143.2292" x2="143.2292" y1="261.3607" y2="282.194"/><polygon fill="#2FA4E7" points="139.0625,271.7773,143.2292,282.194,147.3958,271.7773,143.2292,275.944" style="stroke:#2FA4E7;stroke-width:1.0416666666666667;"/><!--SRC=[fPB1JiCm44Jl-OhbrafLFw0z1NeW1qIb0dSJJzg5n0xsEX2-ddL2GK987BX4MNjdT-R95t921weHKWlZYYWcIB6vGnHsHpBEqeDfsHfXxxO5DxIekZxu0SIETZTbTRMYWoGxvdg_EvHBqf6E5fV80wntM1P4pWieyF4aMjmcwPDiA6-XW9XQYTCgjd323KD_Oqo8sbpQWMjiw3uYJoRvKqJYgJFFwd1sskdzT9ZbUc9JBMlQ1_Q1XTznbZsQg3EyotqSijhKybbJdQBu3e7mrYCmN8srkeCQoDaAjEflSUrVDJ9L-ICd8pdw17DoEimalqoG3zJ0I0hO_cHKDgBBB0QqliyaHv_2ByBL38Gb1uIBUfIB3iYPrRX5mqvpgVG9AZrwqyxWlY85l2GECwSrLJFFKNl6CvhStdy3ou_cdxYSvKPVc-y_0000]--></g></svg>